<svg width="68" height="68" viewBox="0 0 68 68" fill="none" xmlns="http://www.w3.org/2000/svg">
<ellipse cx="33.9993" cy="34" rx="33.9993" ry="34" fill="#F26363"/>
<path d="M30.68 37.54C30.8533 37.54 30.9867 37.62 31.08 37.78C31.1867 37.94 31.24 38.16 31.24 38.44C31.24 38.96 31.1133 39.3733 30.86 39.68C30.1667 40.5333 29.4867 41.1533 28.82 41.54C28.1533 41.9133 27.4333 42.1 26.66 42.1C25.4867 42.1 24.5933 41.52 23.98 40.36C23.38 39.1867 23.08 37.4933 23.08 35.28C23.08 33.76 23.2333 31.9467 23.54 29.84H23.5C22.1667 33.5067 20.8867 37.28 19.66 41.16C19.5267 41.5733 19.36 41.86 19.16 42.02C18.96 42.18 18.6733 42.26 18.3 42.26C17.66 42.26 17.2467 41.94 17.06 41.3C16.7267 40.2333 16.4667 38.96 16.28 37.48C16.0933 35.9867 16 34.48 16 32.96C16 32.08 16.0267 31.3133 16.08 30.66H16.04C15.52 33.3267 15.0467 35.4133 14.62 36.92C14.2067 38.4133 13.6067 39.66 12.82 40.66C12.0333 41.66 11 42.16 9.72 42.16C9.02667 42.16 8.40667 42.0133 7.86 41.72C7.32667 41.4133 6.91333 41.0067 6.62 40.5C6.32667 39.9933 6.18 39.4467 6.18 38.86C6.18 38.4467 6.28667 38.12 6.5 37.88C6.71333 37.6267 7.01333 37.5 7.4 37.5C7.92 37.5 8.24 37.7533 8.36 38.26C8.48 38.7533 8.67333 39.1333 8.94 39.4C9.22 39.6533 9.56 39.78 9.96 39.78C10.4667 39.78 10.9533 39.3467 11.42 38.48C11.9 37.6133 12.3933 36.22 12.9 34.3C13.42 32.38 13.98 29.8333 14.58 26.66C14.6867 26.0733 14.9067 25.66 15.24 25.42C15.5733 25.1667 16.0667 25.04 16.72 25.04C17.8133 25.04 18.32 25.62 18.24 26.78C18.1733 27.9133 18.14 28.94 18.14 29.86C18.14 32.02 18.3 34.5533 18.62 37.46H18.66C19.0067 35.98 19.5467 34.2467 20.28 32.26C21.0133 30.2733 21.7933 28.4 22.62 26.64C22.8333 26.1733 23.02 25.8333 23.18 25.62C23.34 25.4067 23.52 25.26 23.72 25.18C23.92 25.0867 24.2 25.04 24.56 25.04C25.12 25.04 25.5467 25.18 25.84 25.46C26.1467 25.7267 26.2733 26.1133 26.22 26.62C25.8867 29.98 25.72 32.6 25.72 34.48C25.72 36.12 25.8467 37.4067 26.1 38.34C26.3533 39.26 26.7733 39.72 27.36 39.72C27.8 39.72 28.22 39.5867 28.62 39.32C29.0333 39.04 29.54 38.54 30.14 37.82C30.2867 37.6333 30.4667 37.54 30.68 37.54ZM45.4763 25.4C45.8896 25.48 46.1963 25.62 46.3963 25.82C46.6096 26.02 46.7163 26.2533 46.7163 26.52C46.7163 26.96 46.5896 27.28 46.3363 27.48C46.0963 27.68 45.7096 27.76 45.1763 27.72C43.9763 27.6267 43.0363 27.5667 42.3563 27.54C41.6896 27.5 40.8096 27.4733 39.7163 27.46C39.2229 29.9133 38.7696 32.38 38.3563 34.86C38.2096 35.7667 38.0563 36.82 37.8963 38.02C37.7363 39.2067 37.6296 40.1667 37.5763 40.9C37.5496 41.2867 37.3896 41.5867 37.0963 41.8C36.8029 42 36.4496 42.1 36.0363 42.1C35.5963 42.1 35.2563 41.9933 35.0163 41.78C34.7763 41.5667 34.6563 41.2867 34.6563 40.94C34.6563 40.62 34.7029 40.0933 34.7963 39.36C34.9029 38.6133 35.0229 37.8333 35.1563 37.02C35.3029 36.2067 35.4163 35.5 35.4963 34.9C35.6429 33.8867 35.8096 32.88 35.9963 31.88C36.1829 30.88 36.3696 29.9333 36.5563 29.04C36.5963 28.84 36.6429 28.6133 36.6963 28.36C36.7496 28.0933 36.8096 27.8 36.8763 27.48C35.5696 27.52 34.5429 27.6267 33.7962 27.8C33.0496 27.9733 32.5163 28.22 32.1963 28.54C31.8896 28.8467 31.7363 29.2467 31.7363 29.74C31.7363 30.1933 31.8696 30.6267 32.1363 31.04C32.1896 31.1333 32.2163 31.2333 32.2163 31.34C32.2163 31.5933 32.0629 31.8333 31.7563 32.06C31.4629 32.2733 31.1563 32.38 30.8363 32.38C30.6096 32.38 30.4229 32.3133 30.2763 32.18C30.0096 31.9533 29.7896 31.6333 29.6163 31.22C29.4429 30.7933 29.3563 30.3133 29.3563 29.78C29.3563 28.6467 29.7229 27.74 30.4563 27.06C31.2029 26.3667 32.3296 25.86 33.8363 25.54C35.3563 25.22 37.3029 25.06 39.6762 25.06C41.1429 25.06 42.3096 25.0867 43.1763 25.14C44.0563 25.1933 44.8229 25.28 45.4763 25.4ZM62.0816 37.54C62.2549 37.54 62.3882 37.62 62.4816 37.78C62.5882 37.94 62.6416 38.16 62.6416 38.44C62.6416 38.96 62.5149 39.3733 62.2616 39.68C60.9416 41.2933 59.5349 42.1 58.0416 42.1C56.7482 42.1 55.7149 41.6 54.9416 40.6C54.1682 39.6 53.7816 38.1667 53.7816 36.3C53.7816 35.8467 53.8016 35.3933 53.8416 34.94C52.9616 35.1 52.0016 35.22 50.9616 35.3C50.2682 35.3533 49.7949 35.3867 49.5416 35.4C49.2749 36.76 48.9016 38.4267 48.4216 40.4C48.1416 41.56 47.6082 42.14 46.8216 42.14C45.9682 42.14 45.5416 41.7533 45.5416 40.98C45.5416 40.8067 45.5749 40.5667 45.6416 40.26C46.0949 38.4333 46.4549 36.8867 46.7216 35.62L45.7616 35.66C45.3216 35.66 45.0016 35.5867 44.8016 35.44C44.6016 35.28 44.5016 35.0267 44.5016 34.68C44.5016 34.24 44.6282 33.92 44.8816 33.72C45.1349 33.5067 45.5549 33.3867 46.1416 33.36L47.2016 33.32C47.5482 31.44 47.7216 30.0067 47.7216 29.02C47.7216 28.3933 47.6282 27.9667 47.4416 27.74C47.2549 27.5133 47.0082 27.4 46.7016 27.4C45.7682 27.4 44.7149 28.18 43.5416 29.74C43.3682 29.9667 43.1749 30.08 42.9616 30.08C42.7749 30.08 42.6149 29.9933 42.4816 29.82C42.3482 29.6467 42.2816 29.4267 42.2816 29.16C42.2816 28.7467 42.4482 28.3067 42.7816 27.84C43.3682 27.0267 44.1082 26.36 45.0016 25.84C45.8949 25.3067 46.8016 25.04 47.7216 25.04C48.5882 25.04 49.2549 25.34 49.7216 25.94C50.2016 26.5267 50.4416 27.4467 50.4416 28.7C50.4416 29.8067 50.2816 31.3067 49.9616 33.2L51.9216 33.1C52.7616 33.06 53.4816 32.9933 54.0816 32.9C54.3216 31.4333 54.6882 30.06 55.1816 28.78C55.6749 27.5 56.2882 26.46 57.0216 25.66C57.7549 24.86 58.5749 24.46 59.4816 24.46C60.1482 24.46 60.6749 24.7267 61.0616 25.26C61.4482 25.78 61.6416 26.4667 61.6416 27.32C61.6416 30.6267 59.9549 32.92 56.5816 34.2C56.5416 34.7333 56.5216 35.2867 56.5216 35.86C56.5216 37.26 56.6949 38.2533 57.0416 38.84C57.3882 39.4267 57.8749 39.72 58.5016 39.72C59.0482 39.72 59.5482 39.58 60.0016 39.3C60.4549 39.0067 60.9682 38.5133 61.5416 37.82C61.7016 37.6333 61.8816 37.54 62.0816 37.54ZM59.3816 26.2C59.0882 26.2 58.7749 26.4667 58.4416 27C58.1216 27.5333 57.8149 28.26 57.5216 29.18C57.2282 30.1 56.9949 31.1067 56.8216 32.2C57.8882 31.76 58.6749 31.1333 59.1816 30.32C59.6882 29.5067 59.9416 28.46 59.9416 27.18C59.9416 26.8733 59.8882 26.6333 59.7816 26.46C59.6749 26.2867 59.5416 26.2 59.3816 26.2Z" fill="#F9F9F9"/>
</svg>
